<svg width="68" height="13" viewBox="0 0 68 13" fill="none" xmlns="http://www.w3.org/2000/svg">
<path fill-rule="evenodd" clip-rule="evenodd" d="M7.88908 0.166016L0.322754 12.2439H9.38071L10.5036 10.3182H13.0704L14.1933 12.2439H24.1636V10.7742L25.052 12.2439H30.2094L31.0978 10.7431V12.2439H51.8332L54.3545 10.3682L56.7154 12.2439L67.3656 12.2595L59.7753 6.23869L67.3656 0.166016H56.8806L54.4262 2.00706L52.1397 0.166016H29.5823L27.6452 3.28343L25.6628 0.166016H16.6238V1.58578L15.6182 0.166016H7.88908ZM38.8535 1.88143H50.7607L54.4026 4.71906L58.1619 1.88143H61.8038L56.2703 6.23732L61.8038 10.543H57.9967L54.3548 7.67242L50.5764 10.543H38.8535V1.88143ZM41.7937 5.25711V3.67501V3.6735H49.2235L52.4654 6.20368L49.0798 8.74769H41.7937V7.02049H48.2897V5.25711H41.7937ZM9.64191 1.88143H14.0572L19.0759 10.0715V1.88143H23.9127L27.7891 7.75369L31.3616 1.88143H36.1742V10.5481H33.2458L33.222 3.75695L28.9527 10.5481H26.3332L22.04 3.75695V10.5481H16.0157L14.8736 8.60516H8.70334L7.56361 10.5464H4.33587L9.64191 1.88143ZM9.75682 6.80897L11.7897 3.34775L13.8202 6.80897H9.75682Z" fill="#1E1E1E"/>
</svg>
