<svg width="70" height="19" viewBox="0 0 70 19" fill="none" xmlns="http://www.w3.org/2000/svg">
<g opacity="0.6">
<path d="M13.4706 18.1781C18.4454 18.1972 23.0001 14.1211 23.0001 9.16542C23.0001 3.75017 18.4454 0 13.4706 0H9.1845C4.15246 0 0 3.75017 0 9.16542C0 14.1211 4.15246 18.1972 9.1845 18.1781H13.4706Z" fill="#4F4F4F"/>
<path d="M11.0976 14.0067V4.15261C13.0873 4.91764 14.4851 6.83091 14.4851 9.0701C14.4851 11.3093 13.0886 13.2417 11.0976 14.0067ZM3.92185 9.0701C3.92185 6.83091 5.33737 4.89855 7.30928 4.15261V14.0067C5.33873 13.2417 3.92185 11.3284 3.92185 9.0701ZM9.20345 0.746094C4.59279 0.746094 0.860352 4.47717 0.860352 9.0701C0.860352 13.663 4.59143 17.3941 9.20345 17.3941C13.8155 17.3941 17.5466 13.663 17.5466 9.0701C17.5466 4.47717 13.8155 0.746094 9.20345 0.746094Z" fill="#1E1E1E"/>
<path d="M25.9265 3.90384C25.9265 3.04335 25.4669 3.10062 25.0469 3.10062V2.85243C25.4301 2.87152 25.812 2.87152 26.1761 2.87152C26.5784 2.87152 27.1334 2.85243 27.8411 2.85243C30.3285 2.85243 31.6677 4.49841 31.6677 6.20031C31.6677 7.13853 31.1127 9.5291 27.7266 9.5291C27.2288 9.5291 26.7884 9.51 26.3302 9.51C25.872 9.51 25.4697 9.51 25.0483 9.5291V9.2809C25.6224 9.22363 25.9088 9.20454 25.9279 8.55405V3.90384H25.9265ZM26.8647 8.39995C26.8647 9.12681 27.4007 9.22226 27.8602 9.22226C29.9262 9.22226 30.6149 7.67174 30.6149 6.23713C30.6149 4.4575 29.4667 3.15653 27.6107 3.15653C27.2084 3.15653 27.0366 3.17563 26.8647 3.19472V8.39859V8.39995ZM31.9922 9.27954H32.1832C32.4504 9.27954 32.6427 9.27954 32.6427 8.95362V6.37077C32.6427 5.94939 32.49 5.89211 32.145 5.7012V5.54846C32.6045 5.41482 33.1405 5.24299 33.1787 5.20345C33.255 5.16526 33.3123 5.14617 33.3505 5.14617C33.3887 5.14617 33.4269 5.20345 33.4269 5.27981V8.95362C33.4269 9.27954 33.6369 9.27954 33.9055 9.27954H34.0582V9.52773C33.7323 9.52773 33.3887 9.50864 33.0437 9.50864C32.6986 9.50864 32.355 9.50864 31.9909 9.52773V9.27954H31.9922ZM33.0259 3.67338C32.7777 3.67338 32.5473 3.44428 32.5473 3.19472C32.5473 2.94516 32.7764 2.73515 33.0259 2.73515C33.2755 2.73515 33.5046 2.94516 33.5046 3.19472C33.4855 3.462 33.2755 3.67338 33.0259 3.67338ZM34.9583 6.42805C34.9583 6.08303 34.8437 5.98757 34.4033 5.79665V5.62483C34.8246 5.49119 35.2065 5.35754 35.666 5.16526C35.6851 5.16526 35.7233 5.18435 35.7233 5.26072V5.89211C36.2783 5.50891 36.7379 5.18435 37.3884 5.18435C38.2107 5.18435 38.4984 5.77756 38.4984 6.52351V8.9918C38.4984 9.31772 38.7085 9.31772 38.9771 9.31772H39.1489V9.56592C38.8039 9.56592 38.4794 9.54682 38.1343 9.54682C37.7893 9.54682 37.4457 9.54682 37.1007 9.56592V9.27954H37.2725C37.5398 9.27954 37.732 9.27954 37.732 8.95362V6.48532C37.732 5.9303 37.4061 5.6821 36.8525 5.6821C36.547 5.6821 36.0492 5.9303 35.7424 6.14167V8.97407C35.7424 9.3 35.9524 9.3 36.2211 9.3H36.3929V9.54819C36.0479 9.54819 35.7233 9.5291 35.3783 9.5291C35.0333 9.5291 34.6896 9.5291 34.3446 9.54819V9.2809H34.5164C34.7837 9.2809 34.976 9.2809 34.976 8.95498V6.42941H34.9569L34.9583 6.42805ZM39.8758 6.88761C39.8567 6.98307 39.8567 7.11671 39.8758 7.44264C39.9331 8.34132 40.5263 9.08862 41.2913 9.08862C41.8272 9.08862 42.2295 8.80225 42.5923 8.45723L42.7259 8.59087C42.2854 9.16499 41.7304 9.66274 40.9463 9.66274C39.4162 9.66274 39.1094 8.18995 39.1094 7.57764C39.1094 5.70256 40.3722 5.14753 41.0417 5.14753C41.8259 5.14753 42.6495 5.62619 42.6686 6.63942V6.81125L42.5732 6.86852H39.8758V6.88761ZM41.5599 6.58214C41.8081 6.58214 41.8272 6.4485 41.8272 6.33395C41.8272 5.85529 41.5218 5.45437 40.9858 5.45437C40.3926 5.45437 39.9903 5.87575 39.8758 6.56442H41.5599V6.58351V6.58214ZM42.88 9.27954H43.1473C43.4146 9.27954 43.6069 9.27954 43.6069 8.95362V6.27531C43.6069 5.98894 43.2428 5.91121 43.1091 5.85393V5.72029C43.8169 5.41482 44.2001 5.16526 44.2764 5.16526C44.3337 5.16526 44.3528 5.18435 44.3528 5.2989V6.1594H44.3719C44.601 5.79529 45.0224 5.18299 45.5965 5.18299C45.8447 5.18299 46.1515 5.33572 46.1515 5.68074C46.1515 5.94803 45.9797 6.17849 45.692 6.17849C45.3865 6.17849 45.3865 5.94939 45.0606 5.94939C44.8887 5.94939 44.3528 6.17849 44.3528 6.75261V8.9918C44.3528 9.31772 44.5437 9.31772 44.8124 9.31772H45.3483V9.56592C44.8124 9.54682 44.4101 9.54682 44.0091 9.54682C43.6082 9.54682 43.2059 9.54682 42.8609 9.56592V9.27954H42.88ZM46.5729 8.18858C46.7065 8.81997 47.0897 9.35591 47.7784 9.35591C48.3334 9.35591 48.5625 9.01089 48.5625 8.68633C48.5625 7.55719 46.4774 7.9213 46.4774 6.38986C46.4774 5.85393 46.9179 5.16526 47.9693 5.16526C48.2748 5.16526 48.6962 5.26072 49.0603 5.45164L49.1367 6.42805H48.8885C48.793 5.83484 48.448 5.48982 47.8357 5.48982C47.4525 5.48982 47.0897 5.69983 47.0897 6.12121C47.0897 7.25036 49.3098 6.88625 49.3098 8.39859C49.3098 9.02998 48.793 9.69956 47.6639 9.69956C47.2807 9.69956 46.8225 9.56592 46.4965 9.37364L46.382 8.28268L46.5729 8.18722V8.18858ZM57.9775 4.57205H57.7484C57.5575 3.462 56.772 3.00244 55.7015 3.00244C54.631 3.00244 53.0041 3.72929 53.0041 6.02576C53.0041 7.95812 54.3814 9.33545 55.8556 9.33545C56.8129 9.33545 57.597 8.68497 57.788 7.68947L57.998 7.74674L57.788 9.14317C57.3857 9.39136 56.2961 9.66001 55.6647 9.66001C53.4255 9.66001 52.01 8.2254 52.01 6.06258C52.01 4.11112 53.7705 2.6956 55.6456 2.6956C56.4297 2.6956 57.1757 2.9438 57.9039 3.21245L57.9802 4.57069L57.9775 4.57205ZM58.3225 9.27954H58.4944C58.7616 9.27954 58.9539 9.27954 58.9539 8.95362V3.63656C58.9539 3.00516 58.8012 2.98607 58.4371 2.89061V2.73788C58.8203 2.62333 59.2212 2.4515 59.4326 2.3165C59.528 2.25922 59.6235 2.20195 59.6426 2.20195C59.6999 2.20195 59.719 2.25922 59.719 2.33559V8.93725C59.719 9.26318 59.929 9.26318 60.1976 9.26318H60.3503V9.51137C60.0244 9.51137 59.6808 9.49228 59.3358 9.49228C58.9907 9.49228 58.6471 9.49228 58.283 9.51137V9.28227H58.3212L58.3225 9.27954ZM64.4646 8.99316C64.4646 9.16499 64.5601 9.18408 64.7319 9.18408H65.1151V9.39409C64.6937 9.43227 63.9096 9.62319 63.7378 9.68047L63.6805 9.64228V8.87725C63.1064 9.33681 62.6659 9.68047 61.9772 9.68047C61.4604 9.68047 60.9245 9.35454 60.9245 8.55133V6.10212C60.9245 5.85393 60.8863 5.60437 60.3503 5.56619V5.37527C60.6954 5.37527 61.4604 5.318 61.594 5.318C61.7086 5.318 61.7086 5.37527 61.7086 5.58528V8.05358C61.7086 8.33995 61.7086 9.16363 62.55 9.16363C62.8759 9.16363 63.315 8.91543 63.7173 8.58951V6.00666C63.7173 5.81575 63.2578 5.72029 62.9141 5.62346V5.45164C63.7746 5.39436 64.3105 5.318 64.406 5.318C64.4824 5.318 64.4824 5.37527 64.4824 5.48982V8.9918H64.4633L64.4646 8.99316ZM66.3779 5.8362C66.7611 5.51028 67.2766 5.14753 67.8125 5.14753C68.9226 5.14753 69.5921 6.12394 69.5921 7.15626C69.5921 8.39995 68.6744 9.66274 67.2957 9.66274C66.5879 9.66274 66.2047 9.43364 65.9565 9.33681L65.6701 9.54682L65.4792 9.45137C65.5556 8.89634 65.6129 8.34132 65.6129 7.74811V3.63383C65.6129 3.00244 65.4601 2.98335 65.096 2.88789V2.73515C65.4792 2.6206 65.8801 2.44878 66.0915 2.31377C66.2061 2.25649 66.2633 2.19922 66.3015 2.19922C66.3588 2.19922 66.3779 2.25649 66.3779 2.33286V5.83484V5.8362ZM66.3779 8.43814C66.3779 8.80225 66.7229 9.41455 67.3734 9.41455C68.4071 9.41455 68.8271 8.39995 68.8271 7.55855C68.8271 6.52487 68.043 5.66438 67.297 5.66438C66.9329 5.66438 66.6465 5.89348 66.3793 6.12394V8.4395L66.3779 8.43814ZM25.0278 15.078H25.1042C25.2951 15.078 25.4874 15.0589 25.4874 14.7916V12.0751C25.4874 11.8078 25.2965 11.7697 25.1042 11.7697H25.0278V11.6169C25.2378 11.6169 25.5447 11.636 25.7929 11.636C26.0602 11.636 26.367 11.6169 26.6152 11.6169V11.7697H26.5388C26.3479 11.7697 26.1556 11.7887 26.1556 12.0751V14.7916C26.1556 15.0589 26.3465 15.078 26.5388 15.078H26.6152V15.2307C26.367 15.2307 26.0602 15.2116 25.7929 15.2116C25.5447 15.2116 25.2378 15.2307 25.0278 15.2307V15.078ZM30.2126 14.2175L30.2317 12.2469C30.2317 11.8256 29.9262 11.7492 29.7721 11.7492H29.6576V11.5965C29.9058 11.5965 30.1362 11.6156 30.3844 11.6156C30.5944 11.6156 30.8058 11.5965 31.0349 11.5965V11.7492H30.9586C30.7485 11.7492 30.499 11.7874 30.499 12.4188V14.7916C30.499 14.9825 30.499 15.1557 30.5372 15.3084H30.3463L27.668 12.3233V14.4657C27.668 14.9253 27.7634 15.078 28.1657 15.078H28.2612V15.2307C28.0321 15.2307 27.8207 15.2116 27.5916 15.2116C27.3625 15.2116 27.1129 15.2307 26.8838 15.2307V15.078H26.9602C27.3243 15.078 27.4389 14.8298 27.4389 14.4275V12.2265C27.4389 11.9401 27.1907 11.7669 26.9602 11.7669H26.8838V11.6142C27.0747 11.6142 27.2861 11.6333 27.477 11.6333C27.6298 11.6333 27.7825 11.6142 27.9366 11.6142L30.214 14.2161L30.2126 14.2175ZM31.8013 11.8637C31.4181 11.8637 31.399 11.9592 31.3227 12.3424H31.1699C31.189 12.1897 31.2081 12.056 31.2272 11.9019C31.2463 11.7492 31.2654 11.6156 31.2654 11.4615H31.399C31.4372 11.6142 31.5709 11.6142 31.7045 11.6142H34.4019C34.5355 11.6142 34.6692 11.6142 34.6883 11.4615L34.8219 11.4805C34.8028 11.6142 34.7837 11.7669 34.7646 11.9019C34.7455 12.0356 34.7455 12.1883 34.7455 12.3233L34.5928 12.3806C34.5737 12.1897 34.5546 11.8828 34.2096 11.8828H33.3491V14.6375C33.3491 15.0398 33.54 15.078 33.7896 15.078H33.8851V15.2307C33.675 15.2307 33.3109 15.2116 33.0437 15.2116C32.7382 15.2116 32.3741 15.2307 32.1641 15.2307V15.078H32.2595C32.5459 15.078 32.7 15.0589 32.7 14.6375V11.8624H31.8013V11.8637ZM34.9583 15.078H35.0347C35.2256 15.078 35.4179 15.0589 35.4179 14.7916V12.0751C35.4179 11.8078 35.2269 11.7697 35.0347 11.7697H34.9583V11.6169C35.2842 11.6169 35.8188 11.636 36.2593 11.636C36.6997 11.636 37.2357 11.6169 37.5984 11.6169C37.5984 11.846 37.5984 12.191 37.6175 12.4201L37.4648 12.4583C37.4457 12.1133 37.3693 11.846 36.8334 11.846H36.1065V13.2043H36.7188C37.0243 13.2043 37.102 13.0324 37.1402 12.7447H37.2929C37.2738 12.9547 37.2738 13.147 37.2738 13.357C37.2738 13.5479 37.2738 13.7593 37.2929 13.9502L37.1402 13.9884C37.102 13.6816 37.102 13.4715 36.7379 13.4715H36.1065V14.6771C36.1065 15.0221 36.412 15.0221 36.7379 15.0221C37.3693 15.0221 37.6366 14.9839 37.7907 14.3907L37.9434 14.4289C37.8671 14.6961 37.8098 14.9839 37.7716 15.2512C37.4457 15.2512 36.8334 15.2321 36.3752 15.2321C35.917 15.2321 35.2842 15.2512 34.9787 15.2512V15.0793H34.9596L34.9583 15.078ZM38.6321 12.1501C38.6321 11.7669 38.4221 11.7478 38.268 11.7478H38.1725V11.5951C38.3443 11.5951 38.6703 11.6142 38.9757 11.6142C39.2812 11.6142 39.5308 11.5951 39.8171 11.5951C40.4676 11.5951 41.0608 11.7669 41.0608 12.5129C41.0608 12.9724 40.754 13.2588 40.334 13.4306L41.2327 14.7698C41.3854 14.9989 41.4809 15.0562 41.7304 15.0753V15.228C41.5586 15.228 41.3854 15.2089 41.2136 15.2089C41.0608 15.2089 40.8876 15.228 40.7158 15.228C40.3135 14.7112 39.9699 14.137 39.6249 13.5438H39.2798V14.6539C39.2798 15.0562 39.4708 15.0753 39.7012 15.0753H39.7967V15.228C39.4912 15.228 39.2035 15.2089 38.898 15.2089C38.6498 15.2089 38.4003 15.228 38.133 15.228V15.0753H38.2284C38.4193 15.0753 38.5925 14.9798 38.5925 14.7889V12.1488H38.6307L38.6321 12.1501ZM39.2826 13.3747H39.5308C40.0476 13.3747 40.334 13.1838 40.334 12.5715C40.334 12.1119 40.0272 11.8065 39.5689 11.8065C39.4162 11.8065 39.3398 11.8256 39.2826 11.8256V13.3761V13.3747ZM45.2528 14.2161V12.2456C45.2528 11.8242 44.9474 11.7478 44.7933 11.7478H44.6787V11.5951C44.9269 11.5951 45.1574 11.6142 45.4056 11.6142C45.6156 11.6142 45.827 11.5951 46.0561 11.5951V11.7478H45.9797C45.7697 11.7478 45.5201 11.786 45.5201 12.4174V14.7902C45.5201 14.9812 45.5201 15.1544 45.5583 15.3071H45.3674L42.6891 12.3219V14.4643C42.6891 14.9239 42.7845 15.0766 43.1868 15.0766H43.2823V15.2294C43.0532 15.2294 42.8418 15.2103 42.6127 15.2103C42.3836 15.2103 42.1341 15.2294 41.905 15.2294V15.0766H41.9813C42.3454 15.0766 42.46 14.8284 42.46 14.4261V12.2251C42.46 11.9388 42.2118 11.7656 41.9813 11.7656H41.905V11.6128C42.0959 11.6128 42.3073 11.6319 42.4982 11.6319C42.6509 11.6319 42.8036 11.6128 42.9577 11.6128L45.2542 14.2148L45.2528 14.2161ZM46.9179 14.5025C46.8606 14.6743 46.8034 14.808 46.8034 14.9048C46.8034 15.0575 47.0134 15.0766 47.1866 15.0766H47.2438V15.2294C47.0338 15.2103 46.8225 15.2103 46.6124 15.2103C46.4215 15.2103 46.2292 15.2103 46.0574 15.2294V15.0766H46.0956C46.3056 15.0766 46.4788 14.9621 46.5552 14.7316L47.3966 12.3397C47.4729 12.1488 47.5493 11.8801 47.5875 11.6892C47.7593 11.6319 47.9707 11.5365 48.0662 11.4601C48.0852 11.4601 48.0852 11.441 48.1043 11.441C48.1234 11.441 48.1234 11.441 48.1425 11.4601C48.1616 11.4983 48.1807 11.5556 48.1807 11.5937L49.138 14.3102C49.1953 14.5011 49.2717 14.6934 49.3289 14.8462C49.3862 14.9989 49.5008 15.0562 49.674 15.0562H49.7121V15.2089C49.483 15.1898 49.2335 15.1898 48.9853 15.1898C48.7371 15.1898 48.4684 15.1898 48.2012 15.2089V15.0562H48.2584C48.373 15.0562 48.5844 15.0371 48.5844 14.9034C48.5844 14.8271 48.5462 14.6934 48.4698 14.5202L48.2598 13.9079H47.0734L46.9206 14.5011L46.9179 14.5025ZM47.683 12.1869L47.1852 13.6597H48.1616L47.683 12.1869ZM49.9221 11.861C49.5389 11.861 49.5199 11.9565 49.4435 12.3397H49.2717C49.2908 12.1869 49.3098 12.0533 49.3289 11.8992C49.348 11.7451 49.3671 11.6128 49.3671 11.4587H49.5008C49.5389 11.6115 49.6726 11.6115 49.8062 11.6115H52.5036C52.6373 11.6115 52.7709 11.6115 52.79 11.4587L52.9236 11.4778C52.9046 11.6115 52.8855 11.7642 52.8664 11.8992C52.8473 12.0328 52.8473 12.1856 52.8473 12.3206L52.6945 12.3779C52.6755 12.1869 52.6564 11.8801 52.3113 11.8801H51.4509V14.6348C51.4509 15.0371 51.6418 15.0753 51.8913 15.0753H51.9868V15.228C51.7768 15.228 51.4127 15.2089 51.1454 15.2089C50.8386 15.2089 50.4758 15.228 50.2658 15.228V15.0753H50.3613C50.6476 15.0753 50.8017 15.0562 50.8017 14.6348V11.8597H49.9221V11.861ZM53.0982 15.0753H53.1746C53.3655 15.0753 53.5578 15.0562 53.5578 14.7889V12.0724C53.5578 11.8051 53.3668 11.7669 53.1746 11.7669H53.0982V11.6142C53.3082 11.6142 53.615 11.6333 53.8632 11.6333C54.1305 11.6333 54.4374 11.6142 54.6855 11.6142V11.7669H54.6092C54.4183 11.7669 54.226 11.786 54.226 12.0724V14.7889C54.226 15.0562 54.4169 15.0753 54.6092 15.0753H54.6855V15.228C54.4374 15.228 54.1305 15.2089 53.8632 15.2089C53.615 15.2089 53.3082 15.228 53.0982 15.228V15.0753ZM56.772 11.5351C57.8821 11.5351 58.7616 12.2238 58.7616 13.3338C58.7616 14.5393 57.9011 15.3235 56.7911 15.3235C55.681 15.3235 54.8396 14.5775 54.8396 13.4484C54.8396 12.3192 55.681 11.5351 56.772 11.5351ZM56.8484 15.0943C57.863 15.0943 58.0348 14.1957 58.0348 13.4484C58.0348 12.7011 57.6325 11.7642 56.7529 11.7642C55.8733 11.7642 55.5665 12.5674 55.5665 13.2752C55.5856 14.1943 56.007 15.093 56.8484 15.093V15.0943ZM62.2827 14.2148L62.3018 12.2442C62.3018 11.8228 61.9963 11.7465 61.8422 11.7465H61.7277V11.5937C61.9759 11.5937 62.2063 11.6128 62.4545 11.6128C62.6645 11.6128 62.8759 11.5937 63.105 11.5937V11.7465H63.0287C62.8186 11.7465 62.5691 11.7847 62.5691 12.416V14.7889C62.5691 14.9798 62.5691 15.153 62.6073 15.3057H62.4164L59.738 12.3206V14.463C59.738 14.9225 59.8335 15.0753 60.2358 15.0753H60.3313V15.228C60.1022 15.228 59.8908 15.2089 59.6617 15.2089C59.4326 15.2089 59.183 15.228 58.9539 15.228V15.0753H59.0303C59.3944 15.0753 59.4899 14.8271 59.4899 14.4248V12.2238C59.4899 11.9374 59.2608 11.7642 59.0112 11.7642H58.9348V11.6115C59.1257 11.6115 59.3371 11.6306 59.528 11.6306C59.6808 11.6306 59.8335 11.6115 59.9876 11.6115L62.2841 14.2134L62.2827 14.2148ZM63.9287 14.5011C63.8714 14.673 63.8141 14.8066 63.8141 14.9034C63.8141 15.0562 64.0242 15.0753 64.1973 15.0753H64.2546V15.228C64.0446 15.2089 63.8332 15.2089 63.6232 15.2089C63.4323 15.2089 63.24 15.2089 63.0682 15.228V15.0753H63.1064C63.3164 15.0753 63.4896 14.9607 63.5659 14.7302L64.4073 12.3383C64.4837 12.1474 64.5601 11.8787 64.5983 11.6878C64.7701 11.6306 64.9815 11.5351 65.0769 11.4587C65.096 11.4587 65.096 11.4396 65.1151 11.4396C65.1342 11.4396 65.1342 11.4396 65.1533 11.4587C65.1724 11.4969 65.1915 11.5542 65.1915 11.5924L66.1488 14.3089C66.2061 14.4998 66.2824 14.6921 66.3397 14.8448C66.397 14.9975 66.5115 15.0548 66.6847 15.0548H66.7229V15.2075C66.4938 15.1884 66.2443 15.1884 65.9961 15.1884C65.7479 15.1884 65.4792 15.1884 65.2119 15.2075V15.0548H65.2692C65.3838 15.0548 65.5951 15.0357 65.5951 14.9021C65.5951 14.8257 65.5569 14.6921 65.4806 14.5189L65.2706 13.9066H64.0842L63.9314 14.4998L63.9287 14.5011ZM64.6937 12.1856L64.196 13.6584H65.1724L64.6937 12.1856ZM68.0225 14.7302C68.0225 14.9403 68.1752 14.9975 68.328 15.0166C68.538 15.0357 68.7685 15.0357 69.0167 14.9975C69.2267 14.9784 69.4189 14.8448 69.5144 14.7112C69.5908 14.5966 69.648 14.4439 69.6671 14.328H69.8199C69.7626 14.6143 69.6862 14.9212 69.629 15.2075C69.1694 15.2075 68.7112 15.1884 68.2516 15.1884C67.792 15.1884 67.3339 15.2075 66.8743 15.2075V15.0548H66.9506C67.1416 15.0548 67.3529 15.0357 67.3529 14.7098V12.0315C67.3529 11.7642 67.1429 11.726 66.9506 11.726H66.8743V11.5733C67.1416 11.5733 67.4293 11.5924 67.6966 11.5924C67.9639 11.5924 68.2325 11.5733 68.4807 11.5733V11.726H68.3471C68.1562 11.726 68.0021 11.726 68.0021 12.0124V14.7289H68.0211L68.0225 14.7302Z" fill="#1E1E1E"/>
</g>
</svg>
