<svg width="30" height="22" viewBox="0 0 30 22" fill="none" xmlns="http://www.w3.org/2000/svg">
<g opacity="0.6">
<path d="M22.5974 13.3593H24.7577C24.8169 13.3593 24.9618 13.3399 25.0277 13.3399C25.4426 13.2562 25.7917 12.8957 25.7917 12.3935C25.7917 11.8913 25.4426 11.5501 25.0277 11.447C24.9684 11.4277 24.8433 11.4277 24.7577 11.4277H22.5908V13.3593H22.5974Z" fill="#1E1E1E"/>
<path d="M24.5136 0C22.4522 0 20.7595 1.62891 20.7595 3.66989V7.47498H26.0548C26.1799 7.47498 26.3248 7.47498 26.4236 7.49429C27.6223 7.55224 28.5048 8.15745 28.5048 9.20691C28.5048 10.031 27.9055 10.7392 26.7924 10.8809V10.9195C28.0109 11.0032 28.9329 11.6664 28.9329 12.6901C28.9329 13.7975 27.9055 14.525 26.5422 14.525H20.7397V21.9807H26.2458C28.3073 21.9807 29.9999 20.3518 29.9999 18.3108V0H24.5136Z" fill="#1E1E1E"/>
<path d="M25.5214 9.451C25.5214 8.96812 25.1724 8.6462 24.7574 8.58182C24.7179 8.58182 24.6125 8.5625 24.5533 8.5625H22.5972V10.3395H24.5533C24.6125 10.3395 24.7377 10.3395 24.7574 10.3202C25.1724 10.2558 25.5214 9.93388 25.5214 9.451Z" fill="#1E1E1E"/>
<path d="M3.77387 0C1.7124 0 0.0197585 1.62891 0.0197585 3.66989V12.7158C1.07355 13.218 2.16026 13.5399 3.25357 13.5399C4.55104 13.5399 5.25576 12.7738 5.25576 11.7243V7.45566H8.46981V11.705C8.46981 13.3597 7.41603 14.7053 3.85291 14.7053C1.68606 14.7053 0 14.2417 0 14.2417V21.9614H5.50604C7.56751 21.9614 9.26015 20.3325 9.26015 18.2915V0H3.77387Z" fill="#1E1E1E"/>
<path d="M14.1472 0C12.0857 0 10.3931 1.62891 10.3931 3.66989V8.46649C11.3415 7.68101 12.988 7.17881 15.6488 7.2947C17.0714 7.35265 18.5994 7.73895 18.5994 7.73895V9.29061C17.8354 8.91074 16.9331 8.56307 15.7542 8.48581C13.7323 8.34416 12.5204 9.30992 12.5204 11.0032C12.5204 12.6965 13.7388 13.6816 15.7542 13.5206C16.9265 13.4369 17.8354 13.0764 18.5994 12.7158V14.2675C18.5994 14.2675 17.0978 14.6474 15.6488 14.7117C12.988 14.8341 11.3415 14.3319 10.3931 13.5399V22H15.8991C17.9606 22 19.6532 20.3711 19.6532 18.3301V0H14.1472Z" fill="#1E1E1E"/>
</g>
</svg>
