<svg width="70" height="15" viewBox="0 0 70 15" fill="none" xmlns="http://www.w3.org/2000/svg">
<g opacity="0.6">
<path d="M3.16204 2.16406H0V13.4023H3.16204C4.83352 13.4023 6.04302 12.9944 7.11049 12.1148C8.37979 11.0518 9.12433 9.45807 9.12433 7.80365C9.10489 4.47358 6.66645 2.16406 3.16204 2.16406ZM5.70065 10.6227C5.01591 11.2353 4.15028 11.5219 2.73894 11.5219H2.15438V4.08386H2.73894C4.12934 4.08386 4.97555 4.32952 5.70065 4.9831C6.44668 5.65791 6.88922 6.69969 6.88922 7.78242C6.88922 8.86514 6.44668 9.94787 5.70065 10.6227Z" fill="#1E1E1E"/>
<path d="M12.2682 2.16406H10.1123V13.4023H12.2682V2.16406Z" fill="#1E1E1E"/>
<path d="M17.5458 6.47649C16.2571 5.98668 15.8743 5.65913 15.8743 5.06621C15.8743 4.35046 16.5591 3.81971 17.486 3.81971C18.1304 3.81971 18.6746 4.08508 19.2188 4.73866L20.3475 3.2465C19.4206 2.42915 18.3128 2 17.0838 2C15.1298 2 13.6198 3.38905 13.6198 5.22847C13.6198 6.78129 14.3255 7.57741 16.3393 8.31439C17.1855 8.62071 17.6086 8.82543 17.8299 8.94826C18.253 9.23486 18.4742 9.64278 18.4742 10.1129C18.4742 11.0318 17.7686 11.7066 16.8028 11.7066C15.7757 11.7066 14.9489 11.1759 14.4466 10.2145L13.0562 11.5838C14.0429 13.076 15.2524 13.7295 16.8835 13.7295C19.1201 13.7295 20.7108 12.2177 20.7108 10.031C20.7512 8.21279 20.0052 7.39544 17.5488 6.47649H17.5458Z" fill="#1E1E1E"/>
<path d="M21.4136 7.80365C21.4136 11.114 23.9717 13.6677 27.2548 13.6677C28.1818 13.6677 28.9876 13.4842 29.9534 13.0141V10.4392C29.0878 11.3172 28.3223 11.6645 27.355 11.6645C25.1797 11.6645 23.6278 10.0707 23.6278 7.78242C23.6278 5.61696 25.2185 3.92009 27.2533 3.92009C28.2804 3.92009 29.0668 4.28858 29.9519 5.1863V2.61444C29.0055 2.12464 28.2191 1.91992 27.2922 1.91992C24.0494 1.91992 21.4106 4.53575 21.4106 7.80365H21.4136Z" fill="#1E1E1E"/>
<path d="M47.1167 9.72344L44.155 2.16406H41.7988L46.4918 13.6874H47.6609L52.4347 2.16406H50.0979L47.1167 9.72344Z" fill="#1E1E1E"/>
<path d="M53.4214 13.4008H59.5451V11.5007H55.5773V8.47694H59.4046V6.57686H55.5773V4.08386H59.5451V2.16406H53.4214V13.4008Z" fill="#1E1E1E"/>
<path d="M68.1075 5.4959C68.1075 3.3911 66.6767 2.18555 64.18 2.18555H60.9775V13.4238H63.1334V8.90786H63.416L66.3971 13.4238H69.0568L65.5718 8.68343C67.203 8.33617 68.1105 7.21249 68.1105 5.4959H68.1075ZM63.7569 7.35504H63.1319V3.94308H63.7972C65.1473 3.94308 65.8724 4.51478 65.8724 5.61873C65.8724 6.72269 65.1473 7.35504 63.7569 7.35504Z" fill="#1E1E1E"/>
<path d="M42.4092 8.78439C42.9315 5.52066 40.7465 2.44542 37.5287 1.91564C34.311 1.38586 31.2791 3.60217 30.7568 6.86589C30.2345 10.1296 32.4195 13.2049 35.6373 13.7346C38.855 14.2644 41.8869 12.0481 42.4092 8.78439Z" fill="#828282"/>
<path opacity="0.65" d="M42.4092 8.78439C42.9315 5.52066 40.7465 2.44542 37.5287 1.91564C34.311 1.38586 31.2791 3.60217 30.7568 6.86589C30.2345 10.1296 32.4195 13.2049 35.6373 13.7346C38.855 14.2644 41.8869 12.0481 42.4092 8.78439Z" fill="#828282"/>
<path d="M69.4768 2.59343C69.4768 2.38871 69.3362 2.28711 69.1135 2.28711H68.7905V3.26824H69.0327V2.88003L69.3153 3.26824H69.5979L69.2749 2.86032C69.396 2.8406 69.4768 2.73749 69.4768 2.59494V2.59343ZM69.0746 2.73597H69.0342V2.4706H69.0746C69.1957 2.4706 69.2555 2.51154 69.2555 2.59343C69.2555 2.69503 69.1957 2.73597 69.0746 2.73597Z" fill="#1E1E1E"/>
<path d="M69.1538 1.91992C68.6903 1.91992 68.3076 2.30813 68.3076 2.77822C68.3076 3.24831 68.6903 3.63651 69.1538 3.63651C69.6173 3.63651 70 3.24831 70 2.77822C70 2.30813 69.6173 1.91992 69.1538 1.91992ZM69.1538 3.49245C68.7905 3.49245 68.4691 3.18614 68.4691 2.7767C68.4691 2.36727 68.7711 2.06095 69.1538 2.06095C69.5171 2.06095 69.8191 2.3885 69.8191 2.7767C69.8191 3.16491 69.5171 3.49245 69.1538 3.49245Z" fill="#1E1E1E"/>
</g>
</svg>
