<svg width="38" height="23" viewBox="0 0 38 23" fill="none" xmlns="http://www.w3.org/2000/svg">
<path fill-rule="evenodd" clip-rule="evenodd" d="M26.1154 22.7774C32.253 22.7774 37.2284 17.884 37.2284 11.8477C37.2284 5.81137 32.253 0.917969 26.1154 0.917969C23.3647 0.917969 20.8474 1.90088 18.9068 3.52907C16.9663 1.90097 14.4491 0.918128 11.6984 0.918128C5.56091 0.918128 0.585449 5.81153 0.585449 11.8479C0.585449 17.8842 5.56091 22.7776 11.6984 22.7776C14.4492 22.7776 16.9665 21.7947 18.907 20.1665C20.8476 21.7946 23.3648 22.7774 26.1154 22.7774Z" fill="#BDBDBD"/>
<path fill-rule="evenodd" clip-rule="evenodd" d="M18.9072 20.1664C21.2966 18.1617 22.8117 15.1787 22.8117 11.8477C22.8117 8.51668 21.2966 5.53371 18.9072 3.529C20.8478 1.90085 23.3651 0.917969 26.1157 0.917969C32.2533 0.917969 37.2287 5.81137 37.2287 11.8477C37.2287 17.884 32.2533 22.7774 26.1157 22.7774C23.3651 22.7774 20.8478 21.7945 18.9072 20.1664Z" fill="#1E1E1E"/>
<path fill-rule="evenodd" clip-rule="evenodd" d="M18.9069 20.1667C21.2963 18.162 22.8114 15.179 22.8114 11.848C22.8114 8.51699 21.2963 5.53401 18.9069 3.5293C16.5175 5.53401 15.0024 8.51699 15.0024 11.848C15.0024 15.179 16.5175 18.162 18.9069 20.1667Z" fill="#828282"/>
</svg>
