<svg width="55" height="15" viewBox="0 0 55 15" fill="none" xmlns="http://www.w3.org/2000/svg">
<g opacity="0.6">
<path fill-rule="evenodd" clip-rule="evenodd" d="M6.98943 0.416973C8.77368 0.416973 10.4202 1.3792 10.1947 3.77663C9.92208 6.62598 8.38542 8.20288 5.96242 8.20959H3.84483C3.54039 8.20959 3.39298 8.45661 3.31398 8.96214L2.90453 11.5491C2.84287 11.9398 2.64152 12.1322 2.34382 12.1322H0.373628C0.059553 12.1322 -0.0493133 11.9331 0.0200529 11.486L1.6463 1.1159C1.72723 0.605589 1.91895 0.416016 2.2706 0.416016H6.99039L6.98943 0.416973ZM3.78124 5.96917H5.38534C6.38922 5.93088 7.05494 5.24056 7.12238 3.99493C7.16284 3.2261 6.64067 2.67462 5.80924 2.67845L4.29956 2.68515L3.78221 5.96822L3.78124 5.96917ZM15.5513 11.3395C15.7315 11.1767 15.9145 11.0924 15.8885 11.2935L15.824 11.7741C15.7912 12.025 15.8905 12.1581 16.1255 12.1581H17.8761C18.1709 12.1581 18.3144 12.0403 18.3867 11.5865L19.4647 4.8595C19.5197 4.52152 19.4358 4.35589 19.1776 4.35589H17.2527C17.0793 4.35589 16.9945 4.45259 16.9493 4.71588L16.878 5.1295C16.8414 5.34492 16.7412 5.38322 16.6487 5.16588C16.3221 4.39801 15.4897 4.05333 14.3278 4.08014C11.6283 4.13567 9.80839 6.17215 9.61378 8.78309C9.46349 10.8023 10.9192 12.3879 12.8383 12.3879C14.2305 12.3879 14.8538 11.9809 15.5552 11.3433L15.5494 11.3395H15.5513ZM14.085 10.3045C12.9231 10.3045 12.1139 9.38341 12.2815 8.25459C12.4491 7.12576 13.5359 6.2047 14.6977 6.2047C15.8596 6.2047 16.6689 7.12576 16.5013 8.25459C16.3336 9.38341 15.2479 10.3045 14.085 10.3045ZM22.8907 4.33482H21.116C20.7499 4.33482 20.6016 4.60578 20.7172 4.93993L22.9205 11.3519L20.7596 14.4033C20.5785 14.658 20.7191 14.8906 20.9735 14.8906H22.9677C23.2047 14.9174 23.4369 14.8054 23.5602 14.6015L30.3369 4.94088C30.546 4.64408 30.4477 4.33195 30.1047 4.33195H28.2164C27.8927 4.33195 27.7636 4.45929 27.5777 4.72641L24.752 8.7965L23.4889 4.71684C23.4148 4.46982 23.2308 4.33386 22.8907 4.33386H22.8897L22.8907 4.33482Z" fill="#1E1E1E"/>
<path fill-rule="evenodd" clip-rule="evenodd" d="M37.3884 0.417893C39.1726 0.417893 40.8191 1.38012 40.5937 3.77755C40.321 6.6269 38.7844 8.2038 36.3614 8.21051H34.2457C33.9413 8.21051 33.7939 8.45753 33.7149 8.96305L33.3054 11.5501C33.2438 11.9407 33.0424 12.1331 32.7447 12.1331H30.7745C30.4604 12.1331 30.3516 11.934 30.4209 11.4869L32.0501 1.11395C32.131 0.603637 32.3227 0.414062 32.6744 0.414062H37.3903V0.416936L37.3884 0.417893ZM34.1802 5.97009H35.7843C36.7882 5.9318 37.4539 5.24148 37.5213 3.99585C37.5618 3.22702 37.0396 2.67554 36.2082 2.67937L34.6985 2.68607L34.1812 5.96914L34.1802 5.97009ZM45.9503 11.3404C46.1304 11.1776 46.3135 11.0934 46.2875 11.2944L46.2229 11.7751C46.1902 12.0259 46.2894 12.159 46.5245 12.159H48.275C48.5698 12.159 48.7134 12.0412 48.7856 11.5874L49.8647 4.86042C49.9196 4.52244 49.8358 4.35681 49.5776 4.35681H47.6555C47.4821 4.35681 47.3973 4.45351 47.3521 4.7168L47.2808 5.13042C47.2442 5.34584 47.144 5.38414 47.0515 5.1668C46.7249 4.39893 45.8925 4.05425 44.7306 4.08106C42.0311 4.13659 40.2112 6.17307 40.0166 8.78401C39.8663 10.8033 41.322 12.3888 43.2412 12.3888C44.6333 12.3888 45.2566 11.9819 45.958 11.3442L45.9503 11.3404ZM44.4849 10.3054C43.323 10.3054 42.5138 9.38433 42.6814 8.25551C42.849 7.12668 43.9358 6.20562 45.0977 6.20562C46.2595 6.20562 47.0688 7.12668 46.9012 8.25551C46.7335 9.38433 45.6468 10.3054 44.4849 10.3054ZM52.5574 12.1695H50.5371C50.4051 12.1753 50.2934 12.0738 50.2876 11.9426C50.2876 11.9273 50.2876 11.9129 50.2895 11.8976L52.0641 0.723317C52.0988 0.566297 52.2385 0.454276 52.4004 0.452361H54.4207C54.5527 0.446616 54.6644 0.548105 54.6702 0.679274C54.6702 0.694593 54.6702 0.708955 54.6683 0.724274L52.8936 11.8986C52.8599 12.0565 52.7202 12.1705 52.5574 12.1724V12.1695Z" fill="#1E1E1E"/>
</g>
</svg>
