<svg width="53" height="13" viewBox="0 0 53 13" fill="none" xmlns="http://www.w3.org/2000/svg">
<path fill-rule="evenodd" clip-rule="evenodd" d="M13.2736 12.8731H8.77634L5.40393 3.41751C5.24387 2.98255 4.90399 2.59803 4.40405 2.41679C3.1564 1.96135 1.78156 1.59888 0.281738 1.41607V1.05203H7.52649C8.52637 1.05203 9.27628 1.59888 9.40127 2.23398L11.1511 9.05464L15.6461 1.05203H20.0184L13.2736 12.8731ZM22.5179 12.8731H18.2706L21.768 1.05203H26.0153L22.5179 12.8731ZM31.5102 4.32673C31.6352 3.69005 32.3851 3.32601 33.26 3.32601C34.6348 3.23461 36.1325 3.41742 37.3823 3.87129L38.1322 1.32615C36.8824 0.962106 35.5076 0.779297 34.2599 0.779297C30.1376 0.779297 27.1379 2.4167 27.1379 4.6892C27.1379 6.418 29.2627 7.32574 30.7625 7.87259C32.3851 8.41787 33.01 8.78191 32.8851 9.32718C32.8851 10.1451 31.6352 10.5091 30.3876 10.5091C28.8877 10.5091 27.3879 10.2365 26.0153 9.78105L25.2654 12.3278C26.7652 12.7816 28.3878 12.9644 29.8876 12.9644C34.5099 13.0543 37.3823 11.4185 37.3823 8.96314C37.3823 5.87115 31.5102 5.68992 31.5102 4.32673ZM52.2472 12.8731L48.8748 1.05203H45.2524C44.5025 1.05203 43.7526 1.41607 43.5026 1.96135L37.2578 12.8731H41.63L42.5027 11.1459H47.8749L48.3749 12.8731H52.2472ZM45.8771 4.23508L47.1247 8.69026H43.6273L45.8771 4.23508Z" fill="#1E1E1E"/>
</svg>
